<?xml version="1.0" encoding="UTF-8" standalone="no"?>
<!DOCTYPE svg PUBLIC "-//W3C//DTD SVG 1.1//EN" "http://www.w3.org/Graphics/SVG/1.1/DTD/svg11.dtd">
<svg version="1.1" xmlns="http://www.w3.org/2000/svg" xmlns:xl="http://www.w3.org/1999/xlink" xmlns:dc="http://purl.org/dc/elements/1.1/" viewBox="-313 -569 2373 2031" width="2373" height="2031">
  <defs>
    <linearGradient x1="0" x2="1" id="Gradient" gradientUnits="userSpaceOnUse">
      <stop offset="0" stop-color="#007cda"/>
      <stop offset="0" stop-color="#0072cc"/>
      <stop offset="1" stop-color="#0067be"/>
    </linearGradient>
    <linearGradient id="Obj_Gradient" xl:href="#Gradient" gradientTransform="translate(620.1653 645.1217) rotate(-112) scale(376.12193)"/>
    <linearGradient x1="0" x2="1" id="Gradient_2" gradientUnits="userSpaceOnUse">
      <stop offset="0" stop-color="#3ddbd9"/>
      <stop offset="0" stop-color="#26d6dc"/>
      <stop offset="1" stop-color="#00d1de"/>
    </linearGradient>
    <linearGradient id="Obj_Gradient_2" xl:href="#Gradient_2" gradientTransform="translate(328.98885 284.4043) rotate(-22) scale(320.2427)"/>
    <linearGradient x1="0" x2="1" id="Gradient_3" gradientUnits="userSpaceOnUse">
      <stop offset="0" stop-color="#00c8e5"/>
      <stop offset="0" stop-color="#00cde2"/>
      <stop offset="1" stop-color="#00d1de"/>
    </linearGradient>
    <linearGradient id="Obj_Gradient_3" xl:href="#Gradient_3" gradientTransform="translate(152.10625 571.75054) rotate(-65.2726) scale(387.3386)"/>
    <linearGradient x1="0" x2="1" id="Gradient_4" gradientUnits="userSpaceOnUse">
      <stop offset="0" stop-color="#00c8e5"/>
      <stop offset="0" stop-color="#00c4e7"/>
      <stop offset="1" stop-color="#00bfe8"/>
    </linearGradient>
    <linearGradient id="Obj_Gradient_4" xl:href="#Gradient_4" gradientTransform="translate(167.04616 540.7409) rotate(32.421804) scale(457.4365)"/>
    <linearGradient x1="0" x2="1" id="Gradient_5" gradientUnits="userSpaceOnUse">
      <stop offset="0" stop-color="#00bfe8"/>
      <stop offset="0" stop-color="#00b7eb"/>
      <stop offset="1" stop-color="#00aeee"/>
    </linearGradient>
    <linearGradient id="Obj_Gradient_5" xl:href="#Gradient_5" gradientTransform="translate(451.11173 685.9196) rotate(30.254557) scale(470.3869)"/>
    <linearGradient x1="0" x2="1" id="Gradient_6" gradientUnits="userSpaceOnUse">
      <stop offset="0" stop-color="#00aeee"/>
      <stop offset="0" stop-color="#00a6f0"/>
      <stop offset="1" stop-color="#009ef2"/>
    </linearGradient>
    <linearGradient id="Obj_Gradient_6" xl:href="#Gradient_6" gradientTransform="translate(731.9174 1257.1635) rotate(-71.46302) scale(386.64563)"/>
    <linearGradient x1="0" x2="1" id="Gradient_7" gradientUnits="userSpaceOnUse">
      <stop offset="0" stop-color="#009ef2"/>
      <stop offset="0" stop-color="#0097f4"/>
      <stop offset="1" stop-color="#008ff5"/>
    </linearGradient>
    <linearGradient id="Obj_Gradient_7" xl:href="#Gradient_7" gradientTransform="translate(365.3213 1116.5118) rotate(18.30965) scale(386.55525)"/>
    <linearGradient x1="0" x2="1" id="Gradient_8" gradientUnits="userSpaceOnUse">
      <stop offset="0" stop-color="#008ff5"/>
      <stop offset="0" stop-color="#0086e8"/>
      <stop offset="1" stop-color="#007cda"/>
    </linearGradient>
    <linearGradient id="Obj_Gradient_8" xl:href="#Gradient_8" gradientTransform="translate(449.98573 1093.0344) rotate(-103.843) scale(275.12352)"/>
  </defs>
  <g id="Canevas_1" stroke-opacity="1" stroke-dasharray="none" stroke="none" fill-opacity="1" fill="none">
    <title>Canevas 1</title>
    <g id="Canevas_1_Calque_1">
      <title>Calque 1</title>
      <g id="Graphic_2">
        <rect x="-19" y="-8" width="645" height="262" stroke="#ff2600" stroke-linecap="round" stroke-linejoin="round" stroke-width="7"/>
      </g>
      <g id="Graphic_3">
        <rect x="-104" y="44" width="645" height="262" stroke="#00fa00" stroke-linecap="round" stroke-linejoin="round" stroke-width="7"/>
      </g>
      <g id="Graphic_4">
        <rect x="480.33333" y="145.33333" width="645" height="262" stroke="#0432ff" stroke-linecap="round" stroke-linejoin="round" stroke-width="7"/>
      </g>
      <g id="Graphic_5">
        <rect x="266" y="-50" width="645" height="262" stroke="#fffc00" stroke-linecap="round" stroke-linejoin="round" stroke-width="7"/>
      </g>
      <g id="Group_6">
        <title>lgs-logo-fr-full-colour-primary</title>
        <g id="Group_7">
          <title>Group</title>
          <g id="Graphic_19">
            <title>s</title>
            <path d="M 1100.7392 -100.11738 L 1125.995 -37.607094 C 1139.9434 -3.083615 1123.264 36.2106 1088.7405 50.15899 L 869.9545 138.55427 C 844.0619 149.01557 831.5524 178.48623 842.0136 204.37884 C 852.2372 229.68298 880.6158 242.20547 906.0675 232.9975 L 907.8382 232.3197 L 1048.4864 175.49417 C 1143.4259 137.13609 1251.485 183.00445 1289.8431 277.94402 C 1327.8176 371.9342 1283.2417 478.7828 1190.2267 518.1292 L 1187.3932 519.30075 L 999.8624 595.0681 C 932.1182 622.43856 855.1892 590.8431 825.963 524.4292 L 824.3302 520.55915 L 1136.8816 394.28017 C 1162.7743 383.8189 1175.2838 354.3482 1164.8225 328.4556 C 1154.599 303.15147 1126.2203 290.62898 1100.7686 299.83695 L 1098.998 300.51474 L 958.3498 357.3403 C 863.4102 395.69835 755.35115 349.83 716.9931 254.89043 C 679.0186 160.90026 723.5944 54.051643 816.6095 14.705269 Z" fill="#003a6d"/>
          </g>
          <g id="Group_10">
            <title>g</title>
            <g id="Graphic_18">
              <title>Path</title>
              <path d="M 655.47365 571.2901 L 653.1247 577.002 L 625.50676 642.9636 L 563.3183 616.9255 C 530.1171 603.02506 513.88636 565.6508 525.831 532.1502 L 527.16863 528.6992 L 528.8762 524.621 C 557.9738 456.0714 525.9916 376.91275 457.44204 347.8152 C 425.71004 334.34574 390.9112 333.63113 359.211 345.02067 L 354.23237 346.9195 L 570.84745 259.38685 C 663.20655 331.4564 700.5323 458.1056 655.47365 571.2901 Z" fill="url(#Obj_Gradient)"/>
            </g>
            <g id="Graphic_17">
              <title>Path</title>
              <path d="M 600.6569 101.92898 L 625.9127 164.43927 C 639.8611 198.96275 623.1817 238.25696 588.6582 252.20536 L 354.24464 346.9146 L 303.73305 221.89401 Z" fill="url(#Obj_Gradient_2)"/>
            </g>
            <g id="Graphic_16">
              <title>Path</title>
              <path d="M 311.5249 218.72773 L 362.0365 343.7483 L 354.24464 346.9146 C 321.23892 360.24977 294.82497 385.8228 280.63625 419.24936 C 266.08865 453.52135 266.8085 490.4452 279.7325 522.4389 L 154.70877 572.9427 C 128.86076 508.95524 127.42106 435.10756 156.51626 366.56355 C 183.9087 302.031 234.50002 251.8241 297.4022 224.54516 L 303.73305 221.89401 Z" fill="url(#Obj_Gradient_3)"/>
            </g>
            <g id="Graphic_15">
              <title>Path</title>
              <path d="M 352.07042 596.05515 L 485.36356 652.81766 L 532.94766 673.1817 L 480.2512 797.3268 L 390.0843 758.75595 L 299.3846 720.1751 C 228.04042 689.8913 176.50108 632.4945 151.67516 565.0838 L 276.8197 514.5291 C 288.62648 549.9474 315.00205 580.32056 352.07042 596.05515 Z" fill="url(#Obj_Gradient_4)"/>
            </g>
            <g id="Graphic_14">
              <title>Path</title>
              <path d="M 527.48435 670.8509 L 634.1024 716.4518 L 724.8021 755.0326 C 793.3573 784.1326 843.6257 838.2671 869.4779 902.265 L 744.4542 952.7688 C 731.5281 920.7699 706.3939 893.7026 672.1163 879.1526 L 538.8232 822.3901 L 474.78787 794.996 Z" fill="url(#Obj_Gradient_5)"/>
            </g>
            <g id="Graphic_13">
              <title>Path</title>
              <path d="M 867.6705 1108.6442 C 838.5729 1177.1938 784.4448 1227.4597 720.4537 1253.3138 L 669.9343 1128.2963 C 701.9332 1115.3702 729.0005 1090.236 743.5505 1055.9584 C 759.2851 1018.89 757.1591 978.7194 741.0486 945.0399 L 866.1883 894.4733 C 895.1574 960.21 897.9543 1037.3 867.6705 1108.6442 Z" fill="url(#Obj_Gradient_6)"/>
            </g>
            <g id="Graphic_12">
              <title>Path</title>
              <path d="M 566.7447 1127.3926 C 603.81075 1143.1262 643.97865 1141.0015 677.6568 1124.8937 L 728.21755 1250.0359 C 662.4819 1278.9999 585.3979 1281.7942 514.0589 1251.5126 C 445.4985 1222.4104 395.2276 1168.2698 369.36106 1104.3037 L 494.4099 1053.7842 C 507.33696 1085.7798 532.4699 1112.8438 566.7447 1127.3926 Z" fill="url(#Obj_Gradient_7)"/>
            </g>
            <g id="Graphic_11">
              <title>Path</title>
              <path d="M 398.67995 832.2441 L 460.86844 858.2823 C 494.0696 872.1827 510.3004 909.557 498.3557 943.0575 L 497.0181 946.5086 L 495.3105 950.5868 C 479.5769 987.6529 481.7016 1027.8208 497.8094 1061.499 L 372.6443 1112.0733 C 344.4465 1048.1338 341.01937 973.4826 368.71308 903.9177 L 371.06203 898.2058 Z" fill="url(#Obj_Gradient_8)"/>
            </g>
          </g>
          <g id="Graphic_9">
            <title>l</title>
            <path d="M -250.4897 154.95738 C -215.96623 141.00899 -176.67202 157.6884 -162.72363 192.21187 L 77.20643 786.0596 C 84.18062 803.3213 103.82773 811.661 121.08947 804.68685 L 136.71704 798.3729 C 162.60965 787.9116 192.08031 800.4212 202.5416 826.3138 L 234.11135 904.4516 L 171.60106 929.7074 C 85.29236 964.5784 -12.94317 922.8799 -47.814147 836.5712 L -313 180.21318 Z" fill="#003a6d"/>
          </g>
          <g id="Graphic_8">
            <title>uneSociétéIBM</title>
            <path d="M 993.3964 824.5491 C 997.3971 822.9328 1000.6956 821.0184 1003.292 818.8059 C 1005.8884 816.5935 1007.9083 814.214 1009.3518 811.6675 C 1010.7952 809.1211 1011.7938 806.4635 1012.3476 803.6947 C 1012.9014 800.926 1013.2238 798.2144 1013.3147 795.5599 L 1014.0649 795.2568 L 1020.4293 811.0094 L 1035.4318 804.948 L 996.3358 708.1821 L 981.3333 714.2435 L 1008.3823 781.192 C 1009.6956 784.44255 1010.1631 787.4894 1009.7849 790.3327 C 1009.4066 793.17595 1008.4266 795.7897 1006.8449 798.1739 C 1005.2632 800.5581 1003.2174 802.6935 1000.7075 804.5801 C 998.1976 806.4668 995.4424 808.0162 992.4419 809.2285 C 977.6895 815.1889 966.8027 809.4801 959.7816 792.1023 L 935.7633 732.655 L 920.7609 738.7164 L 945.8399 800.7891 C 950.588 812.541 957.2007 820.4492 965.678 824.5138 C 974.1553 828.5783 983.3948 828.5901 993.3964 824.5491 Z M 1082.3145 786.0062 L 1055.1898 718.8701 C 1053.927 715.7446 1053.4847 712.7602 1053.863 709.917 C 1054.2412 707.0737 1055.2525 704.4474 1056.8967 702.0379 C 1058.5409 699.6285 1060.618 697.4804 1063.1279 695.5938 C 1065.6378 693.70716 1068.393 692.1577 1071.3935 690.9454 C 1086.0209 685.0356 1096.8451 690.7696 1103.8662 708.1474 L 1127.8845 767.5947 L 1142.887 761.5333 L 1117.808 699.4606 C 1113.0599 687.7087 1106.4784 679.7878 1098.0636 675.69805 C 1089.6488 671.6083 1080.4406 671.58386 1070.439 675.6248 C 1063.1878 678.55446 1058.0622 682.5159 1055.0623 687.5091 C 1052.0624 692.50225 1050.486 698.2292 1050.3331 704.6898 L 1049.583 704.99285 L 1043.2185 689.2403 L 1028.216 695.30165 L 1067.312 792.0676 Z M 1211.1198 736.5832 C 1220.2463 732.89585 1227.3017 727.682 1232.2862 720.94176 C 1237.2707 714.2015 1239.9871 706.8869 1240.4355 698.998 L 1226.6398 695.628 C 1226.3114 702.0141 1224.4464 707.5667 1221.045 712.2859 C 1217.6434 717.005 1212.8797 720.6021 1206.7537 723.0772 C 1202.253 724.8956 1197.918 725.7745 1193.7487 725.7138 C 1189.5795 725.6532 1185.7456 724.8026 1182.247 723.16214 C 1178.7483 721.5217 1175.6228 719.1851 1172.8705 716.1524 C 1170.1182 713.1197 1167.9086 709.5405 1166.2418 705.4148 L 1164.4233 700.91406 L 1233.9973 672.80436 L 1231.1181 665.6782 C 1228.34 658.80205 1224.8202 652.88 1220.5589 647.912 C 1216.2975 642.94394 1211.508 639.09826 1206.1903 636.3749 C 1200.8725 633.65155 1195.1709 632.1377 1189.0853 631.83325 C 1182.9998 631.52884 1176.7064 632.6899 1170.2054 635.3165 C 1163.5793 637.99365 1158.0894 641.5933 1153.7357 646.1154 C 1149.3821 650.63754 1146.1953 655.888 1144.1753 661.86686 C 1142.1554 667.8457 1141.3767 674.37734 1141.8395 681.4618 C 1142.3022 688.5463 1144.0742 695.90165 1147.1554 703.5279 C 1150.2871 711.2792 1154.1346 717.83235 1158.6977 723.1874 C 1163.2609 728.5425 1168.3456 732.6689 1173.9519 735.5665 C 1179.5582 738.4641 1185.4979 740.02725 1191.771 740.2559 C 1198.044 740.48455 1204.4937 739.2603 1211.1198 736.5832 Z M 1213.3236 668.0685 L 1159.8773 689.6622 L 1159.3469 688.3495 C 1157.6295 684.0988 1156.7387 679.9141 1156.6743 675.7954 C 1156.61 671.67666 1157.2663 667.8121 1158.6435 664.2017 C 1160.0207 660.5913 1162.1066 657.3853 1164.9013 654.58375 C 1167.6959 651.7822 1171.1561 649.548 1175.2818 647.8811 C 1183.033 644.7494 1190.301 644.8306 1197.0854 648.1248 C 1203.87 651.41895 1209.0049 657.37924 1212.4902 666.0057 Z M 1075.7274 1009.4281 C 1082.7285 1006.5995 1088.632 1003.1236 1093.4377 999.0006 C 1098.2435 994.8775 1101.9023 990.3452 1104.4141 985.4038 C 1106.9259 980.4624 1108.2283 975.1371 1108.3211 969.4278 C 1108.414 963.7186 1107.2482 957.8635 1104.8236 951.8625 C 1100.8837 942.1109 1094.8513 935.4589 1086.7263 931.9064 C 1078.6013 928.354 1067.5194 927.7414 1053.4805 930.0686 L 1041.8063 931.9494 C 1032.7972 933.4079 1025.6171 933.3639 1020.2659 931.8175 C 1014.9147 930.2711 1010.9763 926.3724 1008.4507 920.1214 C 1005.5715 912.9952 1005.8188 906.6782 1009.1925 901.1705 C 1012.5662 895.6627 1018.4413 891.2167 1026.8177 887.8324 C 1034.4439 884.7512 1041.4008 883.6128 1047.6885 884.4173 C 1053.976 885.2218 1059.9429 887.392 1065.589 890.928 L 1073.9181 877.5283 C 1066.2136 872.4971 1058.0972 869.5956 1049.5687 868.8239 C 1041.0402 868.0522 1031.8376 869.6616 1021.961 873.652 C 1015.585 876.2281 1010.0559 879.3709 1005.374 883.0804 C 1000.692 886.7899 997.0506 890.9152 994.4497 895.4563 C 991.8489 899.9974 990.395 904.9477 990.088 910.3071 C 989.7811 915.6665 990.7894 921.2217 993.1129 926.9727 C 997.2044 937.0993 1003.5307 943.669 1012.092 946.6816 C 1020.6534 949.6941 1031.4906 950.1511 1044.6038 948.0524 L 1056.2781 946.1716 C 1065.7127 944.6866 1072.9872 944.8742 1078.1016 946.7344 C 1083.2161 948.5947 1087.0361 952.6503 1089.5617 958.9013 C 1092.5923 966.4025 1092.5477 973.4011 1089.4279 979.8971 C 1086.308 986.393 1080.0597 991.5352 1070.6832 995.3236 C 1063.057 998.4048 1055.7868 999.4879 1048.8729 998.5729 C 1041.9589 997.6579 1034.9515 995.0718 1027.8507 990.8147 L 1020.1636 1005.2639 C 1028.2937 1010.2686 1036.9301 1013.2872 1046.073 1014.3197 C 1055.2158 1015.3521 1065.1006 1013.7216 1075.7274 1009.4281 Z M 1182.995 966.0892 C 1189.4961 963.4626 1194.9235 959.8882 1199.2771 955.3661 C 1203.6308 950.844 1206.8488 945.5808 1208.9313 939.5768 C 1211.0138 933.5727 1211.8676 927.047 1211.4926 919.9998 C 1211.1176 912.9526 1209.3643 905.5533 1206.2325 897.8021 C 1203.1513 890.1758 1199.2853 883.6665 1194.6343 878.2742 C 1189.9834 872.8818 1184.8235 868.7495 1179.1547 865.8771 C 1173.486 863.0048 1167.515 861.4542 1161.2419 861.2256 C 1154.9688 860.997 1148.5817 862.1959 1142.0807 864.8225 C 1135.5796 867.4491 1130.121 871.0361 1125.7048 875.5835 C 1121.2886 880.1309 1118.0706 885.394 1116.0506 891.3729 C 1114.0306 897.3517 1113.2208 903.896 1113.621 911.0057 C 1114.0212 918.1154 1115.762 925.4834 1118.8432 933.1097 C 1121.9749 940.8609 1125.8536 947.4015 1130.4792 952.7313 C 1135.1049 958.0611 1140.2209 962.1749 1145.8272 965.0725 C 1151.4335 967.9701 1157.4044 969.5206 1163.74 969.724 C 1170.0756 969.9274 1176.494 968.7158 1182.995 966.0892 Z M 1177.6156 952.7745 C 1169.4892 956.0578 1161.8529 956.2345 1154.7066 953.3046 C 1147.5603 950.3748 1141.9162 943.784 1137.7742 933.5323 L 1132.1674 919.655 C 1128.0255 909.4033 1127.5072 900.7416 1130.6126 893.6698 C 1133.718 886.598 1139.3338 881.4205 1147.4601 878.1372 C 1155.5865 874.854 1163.2228 874.6773 1170.3691 877.6071 C 1177.5154 880.537 1183.1595 887.1277 1187.3015 897.3794 L 1192.9083 911.2567 C 1197.0502 921.5084 1197.5685 930.1701 1194.4631 937.2419 C 1191.3578 944.3137 1185.7419 949.4913 1177.6156 952.7745 Z M 1287.4497 923.8868 C 1296.7013 920.1489 1303.5878 914.967 1308.1095 908.341 C 1312.6311 901.715 1315.0404 894.27 1315.3372 886.0061 L 1301.5055 883.0869 C 1300.6757 896.5107 1294.1972 905.6724 1282.0702 910.5721 C 1273.1938 914.1584 1265.3753 914.1542 1258.6148 910.5595 C 1251.8543 906.9647 1246.7566 900.9167 1243.3219 892.4153 L 1236.6543 875.9126 C 1234.937 871.6619 1233.921 867.5277 1233.6066 863.51 C 1233.2922 859.4923 1233.7425 855.7474 1234.9574 852.2753 C 1236.1723 848.8031 1238.177 845.6663 1240.9717 842.8647 C 1243.7664 840.0632 1247.4141 837.7532 1251.9148 835.9348 C 1257.9158 833.5102 1263.4723 832.865 1268.5842 833.9991 C 1273.6961 835.1332 1278.1374 837.847 1281.9082 842.1407 L 1291.8967 830.6882 C 1286.2936 825.0989 1279.7392 821.3845 1272.2336 819.5451 C 1264.728 817.7057 1256.162 818.7307 1246.5353 822.6201 C 1239.7842 825.3477 1234.2006 828.9852 1229.7844 833.5326 C 1225.3683 838.08 1222.2001 843.2866 1220.2799 849.1524 C 1218.3597 855.0182 1217.6935 861.4681 1218.2812 868.5021 C 1218.869 875.536 1220.7287 882.9287 1223.8604 890.6799 C 1226.9922 898.4312 1230.7897 905.0409 1235.2531 910.509 C 1239.7165 915.9771 1244.6762 920.154 1250.1322 923.0396 C 1255.5882 925.9252 1261.484 927.4697 1267.8197 927.6731 C 1274.1553 927.8765 1280.6986 926.6144 1287.4497 923.8868 Z M 1304.1 775.5849 C 1307.3506 774.2716 1309.379 772.5431 1310.1853 770.3995 C 1310.9917 768.2558 1310.8897 765.9338 1309.8795 763.4334 L 1308.8945 760.9955 C 1307.8843 758.4951 1306.3446 756.7539 1304.2755 755.7721 C 1302.2064 754.7902 1299.5465 754.9559 1296.296 756.2692 C 1293.0455 757.5825 1291.017 759.311 1290.2107 761.4546 C 1289.4043 763.59825 1289.5063 765.9203 1290.5165 768.4207 L 1291.5015 770.8586 C 1292.5117 773.359 1294.0514 775.1001 1296.1205 776.082 C 1298.1897 777.0639 1300.8495 776.8982 1304.1 775.5849 Z M 1359.8651 892.0113 L 1320.7691 795.2454 L 1305.7667 801.3068 L 1344.8626 898.0727 Z M 1385.3027 754.1203 L 1393.1339 716.2716 L 1376.7923 715.239 L 1373.7326 753.5595 Z M 1429.0355 866.6824 C 1438.162 862.995 1445.2175 857.7812 1450.202 851.0409 C 1455.1864 844.3007 1457.9029 836.9861 1458.3513 829.0972 L 1444.5556 825.7272 C 1444.2271 832.1133 1442.3622 837.6659 1438.9607 842.3851 C 1435.5592 847.1042 1430.7955 850.7013 1424.6695 853.1764 C 1420.1687 854.9948 1415.8337 855.8737 1411.6645 855.813 C 1407.4953 855.7523 1403.6614 854.9018 1400.1627 853.2613 C 1396.664 851.6209 1393.5386 849.2843 1390.7863 846.2516 C 1388.034 843.2189 1385.8244 839.6397 1384.1575 835.514 L 1382.3391 831.0132 L 1451.913 802.9035 L 1449.0339 795.7774 C 1446.2558 788.9012 1442.736 782.9792 1438.4747 778.0111 C 1434.2133 773.0431 1429.4238 769.1974 1424.106 766.4741 C 1418.7883 763.7507 1413.0867 762.23685 1407.0011 761.9324 C 1400.9155 761.628 1394.6222 762.7891 1388.1211 765.4157 C 1381.495 768.0928 1376.0052 771.6925 1371.6515 776.2146 C 1367.2979 780.7367 1364.111 785.9872 1362.0911 791.966 C 1360.0711 797.9449 1359.2925 804.4765 1359.7553 811.561 C 1360.218 818.6455 1361.99 826.0008 1365.0712 833.6271 C 1368.2029 841.3784 1372.0503 847.9315 1376.6135 853.2866 C 1381.1767 858.6417 1386.2614 862.768 1391.8677 865.6657 C 1397.474 868.5633 1403.4137 870.1264 1409.6868 870.3551 C 1415.9599 870.5837 1422.4094 869.3595 1429.0355 866.6824 Z M 1431.2394 798.1677 L 1377.793 819.7614 L 1377.2627 818.4487 C 1375.5453 814.198 1374.6544 810.0133 1374.5901 805.8946 C 1374.5257 801.7758 1375.1821 797.9113 1376.5593 794.3009 C 1377.9364 790.6905 1380.0224 787.4845 1382.817 784.6829 C 1385.6117 781.8814 1389.0719 779.6472 1393.1976 777.9803 C 1400.9488 774.8486 1408.2167 774.9298 1415.0012 778.224 C 1421.7857 781.5181 1426.9206 787.4784 1430.406 796.1048 Z M 1534.8314 821.3204 L 1529.5277 808.1932 L 1509.837 816.1488 L 1481.3484 745.6372 L 1502.5394 737.0755 L 1497.2357 723.9483 L 1476.0447 732.51 L 1465.21 705.6931 L 1451.7077 711.1484 L 1458.9814 729.1513 C 1460.2947 732.4019 1460.6227 734.9234 1459.9654 736.716 C 1459.308 738.5086 1457.3541 740.0615 1454.1036 741.3748 L 1445.102 745.0116 L 1450.4058 758.1388 L 1466.346 751.6986 L 1493.698 819.3972 C 1495.6174 824.148 1498.5146 827.4494 1502.3896 829.3014 C 1506.2645 831.1533 1510.8274 831.0186 1516.0783 828.8971 Z M 1553.3303 686.23274 L 1561.1616 648.384 L 1544.82 647.3514 L 1541.7603 685.6719 Z M 1597.0632 798.7948 C 1606.1897 795.1075 1613.2452 789.8936 1618.2296 783.1534 C 1623.2141 776.4131 1625.9305 769.0985 1626.379 761.2096 L 1612.5832 757.8396 C 1612.2548 764.2257 1610.3898 769.7783 1606.9884 774.4975 C 1603.5869 779.2166 1598.8231 782.8137 1592.6971 785.2888 C 1588.1964 787.1072 1583.8614 787.9861 1579.6922 787.9254 C 1575.523 787.8648 1571.689 787.0142 1568.1904 785.37375 C 1564.6917 783.7333 1561.5663 781.3967 1558.814 778.364 C 1556.0617 775.3313 1553.852 771.7521 1552.1852 767.6264 L 1550.3668 763.1257 L 1619.9407 735.016 L 1617.0616 727.8898 C 1614.2834 721.0137 1610.7637 715.0916 1606.5023 710.1236 C 1602.241 705.15555 1597.4514 701.3099 1592.1337 698.5865 C 1586.816 695.8632 1581.1143 694.3493 1575.0287 694.0449 C 1568.9432 693.74044 1562.6499 694.9015 1556.1488 697.5281 C 1549.5227 700.20525 1544.0328 703.8049 1539.6792 708.327 C 1535.3255 712.84914 1532.1387 718.0996 1530.1188 724.0785 C 1528.0988 730.0573 1527.3202 736.58895 1527.783 743.6734 C 1528.2457 750.7579 1530.0176 758.11325 1533.0988 765.7395 C 1536.2306 773.4908 1540.078 780.044 1544.6412 785.399 C 1549.2043 790.7541 1554.289 794.8805 1559.8953 797.7781 C 1565.5016 800.6757 1571.4413 802.2389 1577.7144 802.4675 C 1583.9875 802.6962 1590.4371 801.4719 1597.0632 798.7948 Z M 1599.267 730.2801 L 1545.8207 751.8738 L 1545.2904 750.5611 C 1543.573 746.3104 1542.682 742.1257 1542.6177 738.007 C 1542.5534 733.8883 1543.2098 730.0237 1544.587 726.4133 C 1545.9641 722.8029 1548.05 719.5969 1550.8447 716.79536 C 1553.6394 713.9938 1557.0995 711.7596 1561.2252 710.0927 C 1568.9765 706.961 1576.2444 707.0422 1583.0289 710.3364 C 1589.8134 713.63055 1594.9483 719.59085 1598.4336 728.2173 Z M 1754.805 732.4452 L 1749.5014 719.3181 L 1731.1233 726.7433 L 1688.8451 622.10105 L 1707.2232 614.67584 L 1701.9195 601.5487 L 1649.4108 622.76355 L 1654.7145 635.8907 L 1673.0926 628.4655 L 1715.3708 733.1077 L 1696.9927 740.5329 L 1702.2964 753.6601 Z M 1842.9446 696.83455 C 1847.8204 694.8646 1851.9297 692.0773 1855.2724 688.4726 C 1858.6152 684.8679 1861.1049 680.7716 1862.7416 676.1838 C 1864.3782 671.5959 1865.106 666.6482 1864.9249 661.3405 C 1864.7437 656.03285 1863.5671 650.6911 1861.3951 645.3152 C 1859.2231 639.9393 1856.4604 635.711 1853.107 632.6303 C 1849.7536 629.5496 1846.2717 627.32066 1842.6613 625.9435 C 1839.051 624.56634 1835.5494 623.9087 1832.1568 623.9705 C 1828.7642 624.03235 1825.855 624.4806 1823.429 625.3153 L 1822.9745 624.1901 C 1824.9483 622.9564 1826.9707 621.30305 1829.0418 619.23014 C 1831.1129 617.1572 1832.769 614.5975 1834.0105 611.55094 C 1835.252 608.5044 1835.8783 605.0155 1835.8897 601.0843 C 1835.9011 597.15315 1834.9219 592.74966 1832.952 587.87385 C 1828.81 577.6222 1822.4072 570.6835 1813.7436 567.0578 C 1805.08 563.4321 1795.3098 563.8165 1784.433 568.211 L 1730.6117 589.9563 L 1783.4973 720.8528 Z M 1805.4395 625.603 L 1769.246 640.2261 L 1751.971 597.4691 L 1788.1645 582.846 C 1794.4155 580.3204 1799.9227 579.9132 1804.686 581.6244 C 1809.4495 583.3356 1813.0182 587.1292 1815.3922 593.00514 L 1817.9683 599.3812 C 1820.3424 605.25716 1820.4105 610.46506 1818.1727 615.0049 C 1815.935 619.54474 1811.6905 623.07745 1805.4395 625.603 Z M 1832.462 684.9272 L 1793.6431 700.6111 L 1774.7013 653.72836 L 1813.5202 638.0445 C 1820.2713 635.3169 1826.2792 634.8892 1831.5439 636.7614 C 1836.8086 638.6336 1840.7795 642.8827 1843.4566 649.5088 L 1846.0327 655.8849 C 1848.7098 662.511 1848.805 668.326 1846.3185 673.3299 C 1843.832 678.3338 1839.2131 682.1996 1832.462 684.9272 Z M 1921.3325 665.1638 L 1876.7813 554.89564 L 1877.719 554.5168 L 1897.648 571.98764 L 1951.999 616.3439 L 1960.2833 546.6813 L 1962.4829 520.26994 L 1963.4205 519.8911 L 2007.9718 630.15925 L 2023.3493 623.9463 L 1970.4636 493.0498 L 1950.2103 501.23266 L 1941.0051 586.9735 L 1940.0675 587.35235 L 1874.0728 531.9942 L 1853.0693 540.4802 L 1905.955 671.3767 Z" fill="#697077"/>
          </g>
        </g>
      </g>
    </g>
  </g>
</svg>
